<svg width="64" height="64" viewBox="0 0 64 64" fill="none" xmlns="http://www.w3.org/2000/svg">
<rect width="64" height="64" fill="#00875F"/>
<g clip-path="url(#clip0_162_732)" filter="url(#filter0_d_162_732)">
<path d="M31.982 47.7883C40.7116 47.7883 47.7883 40.7116 47.7883 31.982C47.7883 23.2525 40.7116 16.1758 31.982 16.1758C23.2525 16.1758 16.1758 23.2525 16.1758 31.982C16.1758 40.7116 23.2525 47.7883 31.982 47.7883Z" fill="#FFC843"/>
<path d="M31.982 44.276C38.7716 44.276 44.2757 38.7719 44.2757 31.9822C44.2757 25.1926 38.7716 19.6885 31.982 19.6885C25.1923 19.6885 19.6882 25.1926 19.6882 31.9822C19.6882 38.7719 25.1923 44.276 31.982 44.276Z" fill="#D38700"/>
<path d="M33.6438 30.8371H30.3203C29.9834 30.8371 29.6989 30.5526 29.6989 30.2157V27.6372C29.6989 27.3003 29.9834 27.0158 30.3203 27.0158H33.6438C33.9807 27.0158 34.2652 27.3003 34.2652 27.6372C34.2652 28.2192 34.7369 28.6909 35.3189 28.6909C35.901 28.6909 36.3727 28.2192 36.3727 27.6372C36.3727 26.1324 35.1486 24.9083 33.6438 24.9083H33.0358V23.8872C33.0358 23.3052 32.5641 22.8335 31.9821 22.8335C31.4 22.8335 30.9283 23.3052 30.9283 23.8872V24.9083H30.3203C28.8155 24.9083 27.5914 26.1324 27.5914 27.6372V30.2157C27.5914 31.718 28.812 32.9404 30.3136 32.9442C30.3161 32.9442 30.3182 32.9449 30.3203 32.9449H33.6438C33.9807 32.9449 34.2652 33.2294 34.2652 33.5663V36.1448C34.2652 36.4817 33.9807 36.7665 33.6438 36.7665H30.3203C29.9834 36.7665 29.6989 36.4817 29.6989 36.1448C29.6989 35.5628 29.2272 35.0911 28.6452 35.0911C28.0632 35.0911 27.5914 35.5628 27.5914 36.1448C27.5914 37.6496 28.8155 38.874 30.3203 38.874H30.9283V40.0778C30.9283 40.6598 31.4 41.1315 31.9821 41.1315C32.5641 41.1315 33.0358 40.6598 33.0358 40.0778V38.874H33.6438C35.1482 38.874 36.3727 37.6499 36.3727 36.1448V33.5663C36.3727 32.0612 35.1486 30.8371 33.6438 30.8371Z" fill="#FFC843"/>
</g>
<defs>
<filter id="filter0_d_162_732" x="12" y="16" width="40" height="40" filterUnits="userSpaceOnUse" color-interpolation-filters="sRGB">
<feFlood flood-opacity="0" result="BackgroundImageFix"/>
<feColorMatrix in="SourceAlpha" type="matrix" values="0 0 0 0 0 0 0 0 0 0 0 0 0 0 0 0 0 0 127 0" result="hardAlpha"/>
<feOffset dy="4"/>
<feGaussianBlur stdDeviation="2"/>
<feComposite in2="hardAlpha" operator="out"/>
<feColorMatrix type="matrix" values="0 0 0 0 0 0 0 0 0 0 0 0 0 0 0 0 0 0 0.25 0"/>
<feBlend mode="normal" in2="BackgroundImageFix" result="effect1_dropShadow_162_732"/>
<feBlend mode="normal" in="SourceGraphic" in2="effect1_dropShadow_162_732" result="shape"/>
</filter>
<clipPath id="clip0_162_732">
<rect width="32" height="32" fill="white" transform="translate(16 16)"/>
</clipPath>
</defs>
</svg>
