<svg width="35" height="32" viewBox="0 0 35 32" fill="none" xmlns="http://www.w3.org/2000/svg">
<path opacity="0.5" d="M34.0902 0.216181L25.968 29.4667C25.9267 29.5995 25.7615 29.6393 25.6652 29.5464L20.2274 24.3017L24.3023 9.64327C24.3436 9.51049 24.2197 9.39099 24.082 9.43083L8.88392 13.361L3.47372 8.1429C3.37736 8.04996 3.41866 7.89063 3.55632 7.85079L33.87 0.00373914C34.0076 -0.022816 34.1315 0.0966823 34.0902 0.216181Z" fill="#00B37E"/>
<path opacity="0.5" d="M20.2272 24.3014L18.1347 31.8696C18.0934 32.0024 17.9282 32.0422 17.8318 31.9493L0.954191 15.6842C0.857826 15.5913 0.899125 15.432 1.03679 15.3921L8.88365 13.3607L20.2272 24.3014Z" fill="#00B37E"/>
<path d="M24.3016 9.64289L20.2267 24.3014L8.88318 13.3606L24.0813 9.43045C24.219 9.39062 24.3429 9.51012 24.3016 9.64289Z" fill="#00B37E"/>
</svg>
