<svg width="128" height="128" viewBox="0 0 128 128" fill="none" xmlns="http://www.w3.org/2000/svg">
<path opacity="0.5" d="M94.9844 32.4168L79.3256 88.809C79.246 89.065 78.9275 89.1418 78.7417 88.9626L68.2583 78.8514L76.1142 50.5913C76.1939 50.3353 75.955 50.105 75.6896 50.1817L46.389 57.7587L35.9587 47.6987C35.7729 47.5196 35.8525 47.2124 36.1179 47.1356L94.5598 32.0072C94.8252 31.956 95.0641 32.1864 94.9844 32.4168Z" fill="#00B37E"/>
<path opacity="0.5" d="M68.2578 78.8508L64.2236 93.4416C64.144 93.6976 63.8255 93.7744 63.6397 93.5952L31.1013 62.2377C30.9155 62.0585 30.9951 61.7513 31.2605 61.6745L46.3885 57.7581L68.2578 78.8508Z" fill="#00B37E"/>
<path d="M76.1129 50.5906L68.257 78.8507L46.3877 57.758L75.6883 50.181C75.9537 50.1042 76.1925 50.3346 76.1129 50.5906Z" fill="#00B37E"/>
</svg>
