<svg width="28" height="28" viewBox="0 0 28 28" fill="none" xmlns="http://www.w3.org/2000/svg">
<g clip-path="url(#clip0_355_168)">
<path d="M14 25.6667C15.2834 25.6667 16.3334 24.6167 16.3334 23.3333H11.6667C11.6667 24.6167 12.7167 25.6667 14 25.6667ZM21 18.6667V12.8333C21 9.25167 19.0984 6.25334 15.75 5.46V4.66667C15.75 3.69834 14.9684 2.91667 14 2.91667C13.0317 2.91667 12.25 3.69834 12.25 4.66667V5.46C8.91335 6.25334 7.00002 9.24001 7.00002 12.8333V18.6667L4.66669 21V22.1667H23.3334V21L21 18.6667ZM18.6667 19.8333H9.33335V12.8333C9.33335 9.94 11.095 7.58334 14 7.58334C16.905 7.58334 18.6667 9.94 18.6667 12.8333V19.8333Z" fill="black"/>
</g>
<defs>
<clipPath id="clip0_355_168">
<rect width="28" height="28" fill="white"/>
</clipPath>
</defs>
</svg>
