<svg width="342" height="217" viewBox="0 0 342 217" fill="none" xmlns="http://www.w3.org/2000/svg">
<g clip-path="url(#clip0_565_3773)">
<path d="M21.5135 45.7525C17.2585 45.7525 13.0991 44.4243 9.56124 41.936C6.02336 39.4476 3.26593 35.9108 1.63762 31.7729C0.00932148 27.6349 -0.416717 23.0816 0.413385 18.6887C1.24349 14.2959 3.29245 10.2608 6.30116 7.09373C9.30988 3.92667 13.1432 1.76987 17.3164 0.89608C21.4896 0.0222881 25.8153 0.47075 29.7463 2.18475C33.6774 3.89876 37.0373 6.80132 39.4013 10.5254C41.7652 14.2495 43.0269 18.6278 43.0269 23.1067C43.0205 29.1106 40.7518 34.8667 36.7187 39.1122C32.6855 43.3576 27.2172 45.7457 21.5135 45.7525ZM21.5135 1.40452C17.4358 1.40452 13.4497 2.67733 10.0592 5.062C6.66879 7.44667 4.02624 10.8361 2.46579 14.8016C0.90533 18.7672 0.497045 23.1308 1.29256 27.3406C2.08807 31.5504 4.05166 35.4174 6.935 38.4525C9.81835 41.4876 13.492 43.5545 17.4913 44.3919C21.4906 45.2293 25.636 44.7995 29.4033 43.1569C33.1706 41.5143 36.3905 38.7327 38.656 35.1638C40.9214 31.5949 42.1305 27.399 42.1305 23.1067C42.1244 17.3529 39.9502 11.8367 36.0851 7.76815C32.22 3.69961 26.9796 1.41104 21.5135 1.40452Z" fill="#F2F2F2"/>
<path d="M167.626 32.5424C165.498 32.5424 163.419 31.8783 161.65 30.6341C159.881 29.3899 158.502 27.6215 157.688 25.5526C156.874 23.4836 156.661 21.2069 157.076 19.0105C157.491 16.8141 158.515 14.7965 160.02 13.213C161.524 11.6295 163.441 10.5511 165.527 10.1142C167.614 9.67728 169.777 9.90151 171.742 10.7585C173.708 11.6155 175.388 13.0668 176.57 14.9288C177.752 16.7909 178.383 18.98 178.383 21.2195C178.379 24.2215 177.245 27.0995 175.228 29.2222C173.212 31.3449 170.478 32.539 167.626 32.5424ZM167.626 10.8402C165.676 10.8402 163.769 11.4489 162.148 12.5894C160.526 13.7299 159.262 15.3509 158.516 17.2475C157.77 19.1441 157.575 21.231 157.955 23.2444C158.335 25.2578 159.275 27.1072 160.654 28.5588C162.033 30.0103 163.79 30.9989 165.702 31.3994C167.615 31.7998 169.598 31.5943 171.399 30.8087C173.201 30.0231 174.741 28.6928 175.824 26.9859C176.908 25.279 177.486 23.2723 177.486 21.2195C177.483 18.4677 176.443 15.8295 174.595 13.8836C172.746 11.9378 170.24 10.8433 167.626 10.8402Z" fill="#F2F2F2"/>
<path d="M243.371 87.7415C240.978 87.7415 238.638 86.9944 236.648 85.5947C234.658 84.195 233.107 82.2056 232.191 79.878C231.275 77.5504 231.035 74.9891 231.502 72.5182C231.969 70.0472 233.122 67.7774 234.814 65.996C236.507 64.2145 238.663 63.0013 241.01 62.5098C243.358 62.0183 245.791 62.2705 248.002 63.2347C250.213 64.1988 252.103 65.8315 253.433 67.9263C254.763 70.0211 255.472 72.4839 255.472 75.0033C255.469 78.3805 254.193 81.6183 251.924 84.0063C249.655 86.3944 246.579 87.7377 243.371 87.7415ZM243.371 63.2086C241.155 63.2086 238.989 63.9003 237.146 65.1963C235.303 66.4924 233.867 68.3344 233.019 70.4896C232.171 72.6448 231.949 75.0163 232.381 77.3043C232.814 79.5922 233.881 81.6938 235.448 83.3433C237.015 84.9929 239.012 86.1162 241.185 86.5713C243.359 87.0264 245.612 86.7928 247.659 85.9001C249.706 85.0074 251.456 83.4956 252.688 81.556C253.919 79.6164 254.576 77.336 254.576 75.0033C254.573 71.8762 253.391 68.8782 251.29 66.6671C249.19 64.4559 246.342 63.2121 243.371 63.2086Z" fill="#F2F2F2"/>
<path d="M341.552 216.539H240.707C240.589 216.539 240.475 216.489 240.391 216.401C240.307 216.312 240.259 216.192 240.259 216.067C240.259 215.942 240.307 215.822 240.391 215.734C240.475 215.645 240.589 215.596 240.707 215.596H341.552C341.671 215.596 341.785 215.645 341.869 215.734C341.953 215.822 342 215.942 342 216.067C342 216.192 341.953 216.312 341.869 216.401C341.785 216.489 341.671 216.539 341.552 216.539Z" fill="#CCCCCC"/>
<path d="M287.257 72.7607C293.337 72.7607 298.265 67.5728 298.265 61.1731C298.265 54.7735 293.337 49.5856 287.257 49.5856C281.178 49.5856 276.249 54.7735 276.249 61.1731C276.249 67.5728 281.178 72.7607 287.257 72.7607Z" fill="#FFB8B8"/>
<path d="M288.399 198.773L283.197 200.633L273.904 180.394L281.583 177.648L288.399 198.773Z" fill="#FFB8B8"/>
<path d="M278.975 200.397L289.009 196.809L291.155 203.46L274.803 209.306C274.522 208.433 274.406 207.51 274.463 206.589C274.52 205.669 274.749 204.769 275.136 203.942C275.524 203.115 276.062 202.376 276.721 201.768C277.38 201.159 278.146 200.694 278.975 200.397Z" fill="#2F2E41"/>
<path d="M300.155 210.205L294.667 210.496L290.992 188.352L299.092 187.923L300.155 210.205Z" fill="#FFB8B8"/>
<path d="M290.668 209.052L301.252 208.493L301.587 215.507L284.34 216.42C284.296 215.498 284.424 214.577 284.719 213.708C285.013 212.84 285.467 212.04 286.055 211.356C286.642 210.672 287.352 210.117 288.144 209.721C288.935 209.326 289.793 209.099 290.668 209.052Z" fill="#2F2E41"/>
<path d="M267.497 136.633C267.989 136.172 268.379 135.602 268.64 134.965C268.9 134.328 269.025 133.639 269.005 132.946C268.985 132.252 268.821 131.572 268.524 130.953C268.227 130.334 267.805 129.79 267.288 129.361L272.52 113.427L264.456 115.596L260.724 130.395C260.097 131.359 259.827 132.531 259.966 133.689C260.106 134.848 260.644 135.912 261.478 136.681C262.313 137.45 263.387 137.869 264.497 137.861C265.606 137.852 266.673 137.415 267.497 136.633Z" fill="#FFB8B8"/>
<path d="M299.642 203.529C299.571 203.529 299.5 203.525 299.43 203.517L291.98 202.687C291.523 202.638 291.095 202.425 290.768 202.084C290.442 201.743 290.237 201.294 290.188 200.812L284.431 146.788L280.266 161.571L288.032 190.625C288.111 190.921 288.128 191.232 288.082 191.535C288.036 191.839 287.928 192.128 287.766 192.383C287.603 192.639 287.389 192.854 287.14 193.014C286.891 193.174 286.611 193.275 286.321 193.31L278.77 194.223C278.289 194.279 277.805 194.152 277.405 193.865C277.006 193.579 276.717 193.151 276.59 192.659L268.34 159.963C268.272 159.694 268.255 159.414 268.29 159.138L271.998 129.794L299.658 132.129L301.658 201.341C301.666 201.625 301.62 201.908 301.523 202.173C301.425 202.438 301.278 202.68 301.09 202.884C300.902 203.088 300.677 203.25 300.428 203.361C300.179 203.472 299.912 203.529 299.642 203.529Z" fill="#2F2E41"/>
<path d="M290.081 137.146C280.814 137.146 270.322 133.377 269.687 133.146L269.503 133.079L279.957 76.6134L280.15 76.6217C284.293 76.7986 295.599 76.8894 295.712 76.8903L295.915 76.8919L300.273 126.721L301.052 134.01L300.956 134.091C298.291 136.36 294.314 137.146 290.081 137.146Z" fill="#5BAF00"/>
<path d="M273.339 132.267L266.801 129.494L270.133 87.0598C270.214 86.0137 270.516 84.9999 271.018 84.0932C271.52 83.1865 272.21 82.4101 273.035 81.8213L276.476 79.3564C276.379 79.0079 276.361 78.6401 276.425 78.2831C276.489 77.9261 276.632 77.5902 276.843 77.3029C277.055 77.0156 277.327 76.7851 277.64 76.6303C277.952 76.4756 278.295 76.401 278.639 76.4126L279.625 76.446C279.812 76.3131 280.033 76.2428 280.259 76.2445C280.485 76.2462 280.705 76.3198 280.891 76.4555C281.076 76.5913 281.218 76.7829 281.299 77.0052C281.379 77.2275 281.393 77.4701 281.34 77.7013L281.124 82.1971L273.339 132.267Z" fill="#2F2E41"/>
<path d="M270.04 124.659L261.502 124.281L264.268 105.554L266.56 87.9338C266.605 87.3011 266.785 86.6872 267.087 86.1382C267.39 85.5891 267.806 85.1191 268.305 84.7631C268.804 84.4072 269.373 84.1745 269.969 84.0826C270.566 83.9907 271.174 84.0419 271.749 84.2323C272.645 84.5281 273.413 85.1463 273.919 85.9784C274.425 86.8106 274.636 87.8037 274.516 88.7836L272.195 107.876L270.04 124.659Z" fill="#2F2E41"/>
<path d="M283.558 132.915L283.5 132.726C283.461 132.597 279.613 119.605 286.051 104.102L289.28 87.2001L292.039 76.5873C292.09 76.3976 292.183 76.2232 292.31 76.078C292.437 75.9328 292.595 75.8208 292.77 75.7508C292.976 75.6758 293.198 75.6662 293.409 75.7233C293.62 75.7804 293.811 75.9016 293.957 76.0719C295.88 75.4777 297.947 75.6953 299.721 76.6785L303.595 78.827C304.457 79.3047 305.143 80.0698 305.547 81.0024C305.951 81.935 306.05 82.9823 305.828 83.9803L300.532 107.769L303.106 129.989L283.558 132.915Z" fill="#2F2E41"/>
<path d="M289.197 123.757C289.852 123.831 290.515 123.754 291.138 123.53C291.762 123.306 292.331 122.941 292.806 122.461C293.281 121.98 293.651 121.396 293.888 120.749C294.125 120.102 294.225 119.408 294.18 118.716L306.172 109.365L301.98 107.273L289.049 114.285C287.95 114.441 286.943 115.017 286.22 115.902C285.497 116.788 285.108 117.922 285.126 119.09C285.144 120.257 285.569 121.377 286.319 122.237C287.069 123.097 288.093 123.638 289.197 123.757Z" fill="#FFB8B8"/>
<path d="M296.715 119.571L292.665 111.612L302.654 104.692L297.779 86.2876C297.584 85.5507 297.535 84.7794 297.636 84.0218C297.737 83.2642 297.985 82.5366 298.364 81.8843C298.744 81.2321 299.248 80.6694 299.843 80.2312C300.439 79.7929 301.114 79.4887 301.827 79.3375C303.086 79.0734 304.393 79.2991 305.506 79.9728C306.618 80.6464 307.461 81.7223 307.877 83.0005L314.454 103.351C314.59 103.77 314.598 104.224 314.476 104.648C314.355 105.072 314.11 105.446 313.777 105.716L296.715 119.571Z" fill="#2F2E41"/>
<path d="M288.036 63.6309C286.717 63.8116 285.721 62.3904 285.26 61.0767C284.798 59.7629 284.446 58.2334 283.299 57.5237C281.731 56.5542 279.726 57.7203 277.933 57.4004C275.909 57.0392 274.593 54.7809 274.49 52.6225C274.387 50.464 275.203 48.388 276.003 46.3979L276.283 48.8711C276.245 48.0329 276.413 47.1986 276.77 46.448C277.126 45.6974 277.66 45.0556 278.319 44.5841L277.959 48.2132C278.035 47.7125 278.205 47.2327 278.459 46.8013C278.712 46.3698 279.044 45.9953 279.435 45.6992C279.826 45.4031 280.269 45.1912 280.738 45.0756C281.207 44.9601 281.693 44.9433 282.168 45.026L282.112 47.1884C284.45 46.8957 286.808 46.6027 289.153 46.8256C291.498 47.0486 293.859 47.8295 295.637 49.4551C298.295 51.8868 299.266 55.8908 298.94 59.5822C298.614 63.2736 297.167 66.7414 295.658 70.0913C295.278 70.9342 294.753 71.8853 293.873 71.9926C293.082 72.0891 292.358 71.3932 292.112 70.596C291.923 69.7781 291.93 68.9234 292.134 68.1092C292.356 66.865 292.637 65.5932 292.427 64.3464C292.218 63.0997 291.366 61.8676 290.172 61.7148C288.978 61.562 287.757 62.9986 288.331 64.1112L288.036 63.6309Z" fill="#2F2E41"/>
<path d="M144.01 190.863L139.725 188.964L136.786 166.352H97.6401L94.4538 188.872L90.6202 190.889C90.4367 190.986 90.2897 191.145 90.2027 191.34C90.1158 191.536 90.0942 191.756 90.1413 191.967C90.1884 192.177 90.3016 192.364 90.4624 192.498C90.6232 192.632 90.8223 192.705 91.0273 192.705H143.657C143.867 192.705 144.071 192.628 144.234 192.488C144.396 192.348 144.508 192.153 144.549 191.936C144.591 191.719 144.56 191.494 144.462 191.298C144.364 191.103 144.204 190.949 144.01 190.863Z" fill="#E6E6E6"/>
<path d="M213.575 169.361H21.2809C20.272 169.358 19.3052 168.935 18.5926 168.183C17.8799 167.431 17.4797 166.412 17.4797 165.35V136.807H217.376V165.35C217.376 166.412 216.975 167.431 216.263 168.183C215.55 168.935 214.583 169.358 213.575 169.361Z" fill="#CCCCCC"/>
<path d="M217.577 150.297H17.3042V28.1676C17.3056 26.8859 17.7899 25.6571 18.6509 24.7509C19.5119 23.8446 20.6793 23.3348 21.8969 23.3334H212.984C214.202 23.3348 215.369 23.8446 216.23 24.7509C217.091 25.6571 217.575 26.8859 217.577 28.1676V150.297Z" fill="#3F3D56"/>
<path d="M205.615 141.433H29.2657C28.327 141.432 27.4271 141.039 26.7633 140.34C26.0995 139.642 25.7262 138.695 25.7251 137.706V35.9245C25.7261 34.9363 26.0995 33.989 26.7633 33.2903C27.427 32.5916 28.327 32.1985 29.2657 32.1974H205.615C206.554 32.1985 207.454 32.5916 208.118 33.2903C208.781 33.989 209.155 34.9363 209.156 35.9245V137.706C209.155 138.695 208.781 139.642 208.118 140.34C207.454 141.039 206.554 141.432 205.615 141.433Z" fill="white"/>
<path d="M203.955 192.941H33.1921C33.0732 192.941 32.9592 192.891 32.8752 192.802C32.7911 192.714 32.7439 192.594 32.7439 192.469C32.7439 192.344 32.7911 192.224 32.8752 192.135C32.9592 192.047 33.0732 191.997 33.1921 191.997H203.955C204.074 191.997 204.188 192.047 204.272 192.135C204.356 192.224 204.403 192.344 204.403 192.469C204.403 192.594 204.356 192.714 204.272 192.802C204.188 192.891 204.074 192.941 203.955 192.941Z" fill="#CCCCCC"/>
<path d="M189.048 128.787H45.833C45.7141 128.787 45.6001 128.737 45.516 128.649C45.432 128.56 45.3848 128.44 45.3848 128.315V56.0594C45.3848 55.9343 45.432 55.8143 45.516 55.7258C45.6001 55.6374 45.7141 55.5876 45.833 55.5876C45.9518 55.5876 46.0658 55.6374 46.1499 55.7258C46.2339 55.8143 46.2812 55.9343 46.2812 56.0594V127.843H189.048C189.167 127.843 189.281 127.893 189.365 127.982C189.449 128.07 189.496 128.19 189.496 128.315C189.496 128.44 189.449 128.56 189.365 128.649C189.281 128.737 189.167 128.787 189.048 128.787Z" fill="#3F3D56"/>
<path d="M76.4316 123.597H63.4057C63.0529 123.597 62.7148 123.449 62.4654 123.187C62.2159 122.924 62.0756 122.568 62.0752 122.197V103.295C62.0756 102.924 62.2159 102.568 62.4654 102.306C62.7148 102.043 63.0529 101.895 63.4057 101.895H76.4316C76.7843 101.895 77.1225 102.043 77.3719 102.306C77.6214 102.568 77.7617 102.924 77.7621 103.295V122.197C77.7617 122.568 77.6214 122.924 77.3719 123.187C77.1225 123.449 76.7843 123.597 76.4316 123.597Z" fill="#5BAF00"/>
<path d="M100.186 123.597H87.1603C86.8076 123.597 86.4694 123.449 86.22 123.187C85.9706 122.924 85.8303 122.568 85.8298 122.197V85.3675C85.8303 84.9963 85.9706 84.6403 86.22 84.3778C86.4694 84.1152 86.8076 83.9676 87.1603 83.9672H100.186C100.539 83.9676 100.877 84.1152 101.127 84.3778C101.376 84.6403 101.516 84.9963 101.517 85.3675V122.197C101.516 122.568 101.376 122.924 101.127 123.187C100.877 123.449 100.539 123.597 100.186 123.597Z" fill="#5BAF00"/>
<path d="M123.941 123.597H110.915C110.562 123.597 110.224 123.449 109.974 123.187C109.725 122.924 109.585 122.568 109.584 122.197V103.295C109.585 102.924 109.725 102.568 109.974 102.306C110.224 102.043 110.562 101.895 110.915 101.895H123.941C124.293 101.895 124.632 102.043 124.881 102.306C125.13 102.568 125.271 102.924 125.271 103.295V122.197C125.271 122.568 125.13 122.924 124.881 123.187C124.632 123.449 124.293 123.597 123.941 123.597Z" fill="#5BAF00"/>
<path d="M147.695 123.597H134.669C134.324 123.605 133.991 123.469 133.741 123.218C133.492 122.967 133.347 122.623 133.339 122.26V78.2273C133.347 77.8645 133.492 77.52 133.741 77.2694C133.991 77.0188 134.324 76.8825 134.669 76.8903H147.695C148.04 76.8825 148.373 77.0188 148.623 77.2694C148.872 77.52 149.017 77.8645 149.026 78.2273V122.26C149.017 122.623 148.872 122.967 148.623 123.218C148.373 123.469 148.04 123.605 147.695 123.597Z" fill="#5BAF00"/>
<path d="M171.449 123.597H158.423C158.071 123.597 157.733 123.449 157.483 123.187C157.234 122.924 157.093 122.568 157.093 122.197V65.5525C157.093 65.1812 157.234 64.8252 157.483 64.5627C157.733 64.3002 158.071 64.1525 158.423 64.1521H171.449C171.802 64.1525 172.14 64.3002 172.39 64.5627C172.639 64.8252 172.779 65.1812 172.78 65.5525V122.197C172.779 122.568 172.639 122.924 172.39 123.187C172.14 123.449 171.802 123.597 171.449 123.597Z" fill="#5BAF00"/>
<path d="M69.9187 96.2336C71.4039 96.2336 72.6079 94.9662 72.6079 93.4029C72.6079 91.8395 71.4039 90.5721 69.9187 90.5721C68.4335 90.5721 67.2295 91.8395 67.2295 93.4029C67.2295 94.9662 68.4335 96.2336 69.9187 96.2336Z" fill="#3F3D56"/>
<path d="M93.6733 77.8339C95.1585 77.8339 96.3625 76.5666 96.3625 75.0032C96.3625 73.4398 95.1585 72.1725 93.6733 72.1725C92.1881 72.1725 90.9841 73.4398 90.9841 75.0032C90.9841 76.5666 92.1881 77.8339 93.6733 77.8339Z" fill="#3F3D56"/>
<path d="M117.428 96.2336C118.913 96.2336 120.117 94.9662 120.117 93.4029C120.117 91.8395 118.913 90.5721 117.428 90.5721C115.943 90.5721 114.739 91.8395 114.739 93.4029C114.739 94.9662 115.943 96.2336 117.428 96.2336Z" fill="#3F3D56"/>
<path d="M141.182 68.8699C142.667 68.8699 143.871 67.6026 143.871 66.0392C143.871 64.4759 142.667 63.2085 141.182 63.2085C139.697 63.2085 138.493 64.4759 138.493 66.0392C138.493 67.6026 139.697 68.8699 141.182 68.8699Z" fill="#3F3D56"/>
<path d="M164.936 58.4907C166.422 58.4907 167.626 57.2233 167.626 55.6599C167.626 54.0966 166.422 52.8292 164.936 52.8292C163.451 52.8292 162.247 54.0966 162.247 55.6599C162.247 57.2233 163.451 58.4907 164.936 58.4907Z" fill="#3F3D56"/>
<path d="M117.484 94.037L93.6733 75.2637L70.1877 93.7804L69.6499 93.0255L93.6733 74.0847L117.371 92.7689L140.92 65.6421L141.015 65.6015L164.769 55.527L165.104 56.4021L141.444 66.4366L117.484 94.037Z" fill="#3F3D56"/>
</g>
<defs>
<clipPath id="clip0_565_3773">
<rect width="342" height="216.078" fill="white" transform="translate(0 0.460938)"/>
</clipPath>
</defs>
</svg>
