<svg width="128" height="128" viewBox="0 0 128 128" fill="none" xmlns="http://www.w3.org/2000/svg">
<path d="M53.0781 72.5938L49.1719 76.8906C52.8403 80.0528 56.9844 82.75 60.1094 82.75V76.7868C57.375 75.7188 55.5351 74.7406 53.0781 72.5938Z" fill="#00B37E" stroke="#00B37E"/>
<path d="M66.3594 82.75V76.8905C68.9387 76.6421 69.9946 75.8216 71.0469 73.3749V71.4218C69.7594 69.2361 68.6684 68.6827 66.3594 68.0257V61.3992C73.3845 63.6906 75.9037 65.6791 76.9063 69.8593V73.7655C75.8063 79.0711 72.6094 82.75 66.3594 82.75Z" fill="#00B37E" stroke="#00B37E"/>
<path d="M60.1094 66.24V59.5898C58.4501 59.0736 57.7587 58.5964 56.9844 56.9688V55.0157C57.3972 53.0253 58.1538 52.4092 60.1094 51.8907L60.1094 46.0312C56.9844 46.0312 51.5156 49.5468 50.7344 55.0156V57.75C52.0373 62.7653 54.2537 64.428 60.1094 66.24Z" fill="#00B37E" stroke="#00B37E"/>
<path d="M66.3594 46.1289V51.8904C67.1407 51.8904 70.3542 53.048 72.6094 55.0153L76.125 50.3278C72.7263 47.9277 70.6111 47.0454 66.3594 46.1289Z" fill="#00B37E" stroke="#00B37E"/>
<path d="M65.9688 46.0312H60.5V51.8906H65.9688V46.0312Z" fill="#00B37E" stroke="#00B37E"/>
<path d="M60.5 66.3437L65.9688 67.9062V61.2656L60.5 59.7031V66.3437Z" fill="#00B37E" stroke="#00B37E"/>
<path d="M65.9687 76.8906H60.1093L60.5 82.75H65.9687V76.8906Z" fill="#00B37E" stroke="#00B37E"/>
<path d="M65.8593 84.8125V87.3281H60.6093V84.8125H65.8593Z" fill="#00B37E" stroke="#00B37E"/>
<path d="M65.8593 69.8591V74.8281H60.6093V68.5466L65.8593 69.8591ZM65.8593 53.9531V59.0627L60.6093 57.7502V53.9531H65.8593ZM60.6093 41.4531H65.8593V43.9687H63.2344H60.6093V41.4531Z" fill="#00B37E" stroke="#00B37E"/>
</svg>
