<svg width="128" height="128" viewBox="0 0 128 128" fill="none" xmlns="http://www.w3.org/2000/svg">
<path d="M49.5 75L44.5 80.5C49.1956 84.5475 54.5 88 58.5 88V80.367C55 79 52.6449 77.748 49.5 75Z" fill="#00B37E" stroke="#00B37E"/>
<path d="M66.5 88V80.4999C69.8015 80.1819 71.1531 79.1317 72.5 75.9999V73.4999C70.852 70.7023 69.4556 69.9938 66.5 69.1529V60.671C75.4921 63.6039 78.7168 66.1493 80 71.4999V76.4999C78.592 83.2909 74.5 88 66.5 88Z" fill="#00B37E" stroke="#00B37E"/>
<path d="M58.5 66.8672V58.3549C56.3762 57.6942 55.4911 57.0834 54.5 55.0001V52.5001C55.0284 49.9524 55.9968 49.1637 58.5 48.5001L58.5 40.9999C54.5 40.9999 47.5 45.5 46.5 52.5V56C48.1678 62.4196 51.0047 64.5478 58.5 66.8672Z" fill="#00B37E" stroke="#00B37E"/>
<path d="M66.5 41.125V48.4997C67.5 48.4997 71.6133 49.9814 74.5 52.4996L79 46.4996C74.6496 43.4275 71.9422 42.2981 66.5 41.125Z" fill="#00B37E" stroke="#00B37E"/>
<path d="M66 40.9999H59V48.4999H66V40.9999Z" fill="#00B37E" stroke="#00B37E"/>
<path d="M59 66.9999L66 68.9999V60.4999L59 58.4999V66.9999Z" fill="#00B37E" stroke="#00B37E"/>
<path d="M66 80.5H58.5L59 88H66V80.5Z" fill="#00B37E" stroke="#00B37E"/>
<path d="M66 90.5V94H59V90.5H66Z" fill="#00B37E" stroke="#00B37E"/>
<path d="M66 71.3904V78H59V69.6404L66 71.3904ZM66 51V57.8596L59 56.1096V51H66ZM59 35H66V38.5H62.5H59V35Z" fill="#00B37E" stroke="#00B37E"/>
</svg>
