<svg width="18" height="18" viewBox="0 0 18 18" fill="none" xmlns="http://www.w3.org/2000/svg">
<path d="M15.9393 9.88125C15.9768 9.6 15.9956 9.30937 15.9956 9C15.9956 8.7 15.9768 8.4 15.93 8.11875L17.8331 6.6375C18.0018 6.50625 18.0487 6.25312 17.9456 6.06562L16.1456 2.95312C16.0331 2.74687 15.7987 2.68125 15.5925 2.74687L13.3518 3.64687C12.8831 3.29062 12.3862 2.99062 11.8331 2.76562L11.4956 0.384375C11.4581 0.159375 11.2706 0 11.0456 0H7.44559C7.22059 0 7.04246 0.159375 7.00496 0.384375L6.66746 2.76562C6.11434 2.99062 5.60809 3.3 5.14871 3.64687L2.90809 2.74687C2.70184 2.67187 2.46746 2.74687 2.35496 2.95312L0.564336 6.06562C0.451836 6.2625 0.489336 6.50625 0.676836 6.6375L2.57996 8.11875C2.53309 8.4 2.49559 8.70937 2.49559 9C2.49559 9.29062 2.51434 9.6 2.56121 9.88125L0.658086 11.3625C0.489336 11.4938 0.442461 11.7469 0.545586 11.9344L2.34559 15.0469C2.45809 15.2531 2.69246 15.3187 2.89871 15.2531L5.13934 14.3531C5.60809 14.7094 6.10496 15.0094 6.65809 15.2344L6.99559 17.6156C7.04246 17.8406 7.22059 18 7.44559 18H11.0456C11.2706 18 11.4581 17.8406 11.4862 17.6156L11.8237 15.2344C12.3768 15.0094 12.8831 14.7094 13.3425 14.3531L15.5831 15.2531C15.7893 15.3281 16.0237 15.2531 16.1362 15.0469L17.9362 11.9344C18.0487 11.7281 18.0018 11.4938 17.8237 11.3625L15.9393 9.88125ZM9.24559 12.375C7.38934 12.375 5.87059 10.8562 5.87059 9C5.87059 7.14375 7.38934 5.625 9.24559 5.625C11.1018 5.625 12.6206 7.14375 12.6206 9C12.6206 10.8562 11.1018 12.375 9.24559 12.375Z" fill="black"/>
</svg>
