<svg width="20" height="24" viewBox="0 0 20 24" fill="none" xmlns="http://www.w3.org/2000/svg">
<path d="M6.66667 10.8887H4.44444V13.1109H6.66667V10.8887ZM11.1111 10.8887H8.88889V13.1109H11.1111V10.8887ZM15.5556 10.8887H13.3333V13.1109H15.5556V10.8887ZM17.7778 3.11089H16.6667V0.888672H14.4444V3.11089H5.55556V0.888672H3.33333V3.11089H2.22222C0.988889 3.11089 0.0111111 4.11089 0.0111111 5.33312L0 20.8887C0 22.1109 0.988889 23.1109 2.22222 23.1109H17.7778C19 23.1109 20 22.1109 20 20.8887V5.33312C20 4.11089 19 3.11089 17.7778 3.11089ZM17.7778 20.8887H2.22222V8.66645H17.7778V20.8887Z" fill="white"/>
</svg>
