<svg width="24" height="25" viewBox="0 0 24 25" fill="none" xmlns="http://www.w3.org/2000/svg">
<path d="M20.9217 13.9748C20.9717 13.5998 20.9967 13.2123 20.9967 12.7998C20.9967 12.3998 20.9717 11.9998 20.9092 11.6248L23.4467 9.6498C23.6717 9.4748 23.7342 9.1373 23.5967 8.8873L21.1967 4.7373C21.0467 4.4623 20.7342 4.3748 20.4592 4.4623L17.4717 5.6623C16.8467 5.1873 16.1842 4.7873 15.4467 4.4873L14.9967 1.3123C14.9467 1.0123 14.6967 0.799805 14.3967 0.799805H9.59672C9.29672 0.799805 9.05922 1.0123 9.00922 1.3123L8.55922 4.4873C7.82172 4.7873 7.14672 5.1998 6.53422 5.6623L3.54672 4.4623C3.27172 4.3623 2.95922 4.4623 2.80922 4.7373L0.421719 8.8873C0.271719 9.1498 0.321719 9.4748 0.571719 9.6498L3.10922 11.6248C3.04672 11.9998 2.99672 12.4123 2.99672 12.7998C2.99672 13.1873 3.02172 13.5998 3.08422 13.9748L0.546719 15.9498C0.321719 16.1248 0.259219 16.4623 0.396719 16.7123L2.79672 20.8623C2.94672 21.1373 3.25922 21.2248 3.53422 21.1373L6.52172 19.9373C7.14672 20.4123 7.80922 20.8123 8.54672 21.1123L8.99672 24.2873C9.05922 24.5873 9.29672 24.7998 9.59672 24.7998H14.3967C14.6967 24.7998 14.9467 24.5873 14.9842 24.2873L15.4342 21.1123C16.1717 20.8123 16.8467 20.4123 17.4592 19.9373L20.4467 21.1373C20.7217 21.2373 21.0342 21.1373 21.1842 20.8623L23.5842 16.7123C23.7342 16.4373 23.6717 16.1248 23.4342 15.9498L20.9217 13.9748ZM11.9967 17.2998C9.52172 17.2998 7.49672 15.2748 7.49672 12.7998C7.49672 10.3248 9.52172 8.2998 11.9967 8.2998C14.4717 8.2998 16.4967 10.3248 16.4967 12.7998C16.4967 15.2748 14.4717 17.2998 11.9967 17.2998Z" fill="#9DA29E"/>
</svg>
