<svg width="28" height="27" viewBox="0 0 28 27" fill="none" xmlns="http://www.w3.org/2000/svg">
<path d="M16.0428 20.8063C13.8664 19.998 11.6279 19.8736 9.5759 20.4333C8.14571 20.8064 6.77772 21.5525 5.53408 22.4853L4.66352 23.2314L4.41479 23.4802L4.97443 23.9776C5.03661 23.9776 5.03662 24.0398 5.0988 24.102C5.22316 24.2264 5.34753 24.2885 5.53408 24.4129L5.90715 24.6616L6.28025 24.3507C6.34243 24.2885 6.46679 24.1642 6.59116 24.102C7.71043 23.1693 8.95406 22.5474 10.2599 22.2365C11.9388 21.8013 13.7421 21.8634 15.5453 22.5474C17.0377 23.1071 20.0846 23.7911 23.7533 22.2365L23.8777 22.1743L24.0643 21.9878C24.0643 21.9256 24.1264 21.9256 24.1886 21.8634C24.4995 21.4903 24.8104 21.1173 25.0592 20.682L26.3028 18.7543L24.313 19.8736C21.3904 21.4903 18.7166 21.8013 16.0428 20.8063Z" fill="#55B02E"/>
<path d="M7.52389 14.0907C9.2028 13.6554 11.0061 13.7176 12.8093 14.4016C14.7992 15.1478 19.8981 16.2049 25.6188 11.0438L26.5515 10.1111L26.6137 10.0489L26.8624 9.80018L26.7381 9.48927C26.6759 9.24054 26.5515 8.92964 26.4272 8.61873L26.1162 7.74817L25.4944 8.36999C25.4322 8.49435 25.3079 8.55653 25.1835 8.6809C22.4475 11.4791 18.2192 14.3395 13.369 12.5984C11.1926 11.79 8.95407 11.6656 6.90207 12.2253C4.91225 12.7849 3.17115 13.842 1.55443 15.3344V15.2722L0.6217 16.2671C0.6217 16.3293 0.55953 16.3293 0.497348 16.3915L0.310791 16.578L0.372977 16.8267C0.435158 17.1376 0.559518 17.4485 0.6217 17.7594L0.994795 18.7544L1.61661 17.946C1.67879 17.8216 1.80315 17.7595 1.86534 17.6351C3.17115 16.4536 4.97443 14.7747 7.52389 14.0907Z" fill="#55B02E"/>
<path d="M1.49238 12.9714C2.92256 11.4791 4.53928 10.5463 6.28037 10.0489C7.95928 9.61362 9.76255 9.6758 11.5658 10.3598C17.1622 12.4118 22.0124 9.05399 24.1266 7.25071L24.9349 6.44236L25.2458 6.19361L24.9971 5.82054C24.8106 5.63399 24.6862 5.38526 24.4997 5.13653L24.1266 4.63907L23.6913 5.07435C23.6291 5.13653 23.5047 5.26089 23.4426 5.32307C20.8309 7.81034 16.7891 10.3598 12.1876 8.61872C10.0113 7.81036 7.77273 7.68599 5.72074 8.24563C4.41492 8.61872 3.17128 9.24053 1.92764 10.0489L0.621818 11.106C0.497455 11.2304 0.435273 11.2925 0.310909 11.4169L0.186557 11.5413V11.7278C0.124375 12.1631 0.124367 12.5984 0.0621856 12.9714L0 14.526L1.0571 13.4067C1.18146 13.2823 1.30583 13.0958 1.49238 12.9714Z" fill="#55B02E"/>
<path d="M17.8461 25.0347L17.7217 25.4078L17.8461 25.0347C17.6595 24.9725 17.5352 24.9103 17.3486 24.8482C15.1723 24.0398 12.9337 23.9155 10.8817 24.4751C10.4464 24.5995 10.0112 24.7238 9.5759 24.9103L8.08352 25.5944L7.71045 25.7809L8.95409 26.2162C9.32718 26.3405 9.70026 26.4649 10.0734 26.5893L10.2599 26.6515L10.4464 26.5893C10.633 26.5271 10.8195 26.4027 11.0061 26.4027C11.1304 26.4027 11.2548 26.3405 11.3792 26.2784C12.8715 25.9053 14.4883 25.9053 16.2293 26.4649C16.4159 26.5271 16.5403 26.5893 16.7268 26.6515L17.0377 26.7758L17.2243 26.7136C17.6595 26.5893 18.157 26.4649 18.5301 26.2784L20.2712 25.6565L18.4679 25.2213C18.2814 25.1591 18.0326 25.0969 17.8461 25.0347Z" fill="#55B02E"/>
<path d="M27.36 12.1631L26.4273 13.0958C26.3029 13.2202 26.1786 13.3445 26.0542 13.4689C23.5047 15.894 19.4007 18.5056 14.7993 16.7645C12.6229 15.9562 10.3844 15.8318 8.33237 16.3915C6.40473 16.9511 4.66363 17.946 3.10908 19.4384L2.30073 20.3089L2.052 20.6198L2.30073 20.9929C2.48727 21.2416 2.61164 21.4282 2.73601 21.6769L3.10908 22.2365L3.54436 21.6769C3.60654 21.6147 3.7309 21.4904 3.79309 21.4282C5.28545 19.8114 6.90218 18.8165 8.76763 18.3191C10.4465 17.8838 12.2498 17.946 14.0531 18.63C15.6076 19.1896 17.2244 19.3762 18.8411 19.1896C21.7015 18.8787 24.5618 17.262 26.676 15.4587C26.8004 15.3344 26.9247 15.2722 27.0491 15.1478L27.2356 14.9613V14.7747C27.2356 14.4016 27.2978 13.9664 27.2978 13.5933L27.36 12.1631Z" fill="#55B02E"/>
<path d="M3.73094 6.44238L3.5444 6.06928L3.73094 6.44238C4.10403 6.25583 4.53932 6.13146 4.91241 6.0071C6.59132 5.57183 8.39459 5.63401 10.1979 6.31801C11.3793 6.75328 12.5608 6.93983 13.8666 6.93983C16.4782 6.93983 19.0899 6.0071 21.5149 4.20383L22.4477 3.45764L22.7586 3.20892L22.1989 2.77364C22.0124 2.58709 21.7637 2.40055 21.5149 2.27619L21.1418 2.02747L20.8309 2.27619C20.7066 2.33837 20.6444 2.46273 20.52 2.52491C17.2244 5.01219 13.9288 5.69619 10.8197 4.51474C8.58114 3.70638 6.34258 3.51983 4.10403 4.20383C3.91749 4.26601 3.73094 4.32819 3.48222 4.39037L3.35786 4.45255L3.17131 4.63909C3.17131 4.70127 3.10914 4.70128 3.04695 4.76346C2.79823 5.13655 2.48731 5.44747 2.23858 5.82056L1.05713 7.62383L2.98477 6.62892C3.29568 6.62892 3.54439 6.50456 3.73094 6.44238Z" fill="#55B02E"/>
<path d="M8.82991 2.21399L9.01645 2.27617C9.82482 2.58708 11.0685 2.89799 12.623 2.89799C14.2397 2.89799 15.7943 2.5249 17.3488 1.90308L19.2765 0.970353L17.9706 0.535091C17.5976 0.410728 17.2245 0.286364 16.7892 0.224182H16.6026L16.4161 0.286349C16.2296 0.348531 16.043 0.472909 15.8565 0.535091C13.991 1.21909 12.1255 1.34345 10.3223 0.846C10.1357 0.783818 9.94919 0.721625 9.76264 0.659443L9.5761 0.597258L9.38955 0.659443C9.01646 0.783807 8.64337 0.908178 8.27028 1.09472L6.84009 1.71654L8.33247 2.1518C8.45683 2.08962 8.64337 2.15181 8.82991 2.21399Z" fill="#55B02E"/>
</svg>
